# xmcd
#
# Track frame offsets: 
#        150
#        20098
#        35754
#        48965
#        62024
#        80620
#        108132
#        124194
#        141524
#        157544
#
# Disc length: 2407 seconds
#
# Revision: 0
# Processed by: cddbd v1.5.2PL0 Copyright (c) Steve Scherf et al.
# Submitted via: ExactAudioCopyFreeDBPlugin 1.0
#
DISCID=8009650a
DTITLE=Jon Lucien - Premonition
DYEAR=1976
DGENRE=Soul
TTITLE0=Hello Like Before
TTITLE1=If I Could
TTITLE2=Spring's Arrival
TTITLE3=Mi Vida
TTITLE4=Laura
TTITLE5=Gaku
TTITLE6=You Been Away Too Long
TTITLE7=And It All Goes Round And Round
TTITLE8=Child Of Love
TTITLE9=Child Of Love (Early Version)
EXTD=
EXTT0=
EXTT1=
EXTT2=
EXTT3=
EXTT4=
EXTT5=
EXTT6=
EXTT7=
EXTT8=
EXTT9=
PLAYORDER=
